<?xml version="1.0" encoding="UTF-8" standalone="no"?>
<svg width="1920" height="1080" viewBox="0 0 1920 1080" version="1.1" xmlns="http://www.w3.org/2000/svg">
  <defs>
    <radialGradient id="kali-bg" cx="50%" cy="50%" r="100%" fx="50%" fy="50%">
      <stop offset="0%" style="stop-color:#0c0e14; stop-opacity:1" />
      <stop offset="100%" style="stop-color:#05070d; stop-opacity:1" />
    </radialGradient>
    <filter id="blur" x="-50%" y="-50%" width="200%" height="200%">
      <feGaussianBlur in="SourceGraphic" stdDeviation="10" />
    </filter>
  </defs>
  
  <!-- Background base -->
  <rect width="100%" height="100%" fill="url(#kali-bg)"/>
  
  <!-- Kali Linux dragon logo stylized -->
  <g transform="translate(960, 540) scale(0.9)" opacity="0.07" filter="url(#blur)">
    <path d="M0,0 C-100,-100 -200,-50 -250,50 C-300,150 -250,300 -150,400 C-50,500 100,550 200,450 C300,350 350,200 300,100 C250,0 150,-50 0,0 Z" fill="#0066cc"/>
    <circle cx="-150" cy="150" r="30" fill="#00aaff"/>
    <circle cx="150" cy="150" r="30" fill="#00aaff"/>
  </g>
  
  <!-- Network grid pattern -->
  <g opacity="0.05">
    <!-- Horizontal lines -->
    <line x1="0" y1="100" x2="1920" y2="100" stroke="#00aaff" stroke-width="1"/>
    <line x1="0" y1="300" x2="1920" y2="300" stroke="#00aaff" stroke-width="1"/>
    <line x1="0" y1="500" x2="1920" y2="500" stroke="#00aaff" stroke-width="1"/>
    <line x1="0" y1="700" x2="1920" y2="700" stroke="#00aaff" stroke-width="1"/>
    <line x1="0" y1="900" x2="1920" y2="900" stroke="#00aaff" stroke-width="1"/>
    
    <!-- Vertical lines -->
    <line x1="200" y1="0" x2="200" y2="1080" stroke="#00aaff" stroke-width="1"/>
    <line x1="600" y1="0" x2="600" y2="1080" stroke="#00aaff" stroke-width="1"/>
    <line x1="1000" y1="0" x2="1000" y2="1080" stroke="#00aaff" stroke-width="1"/>
    <line x1="1400" y1="0" x2="1400" y2="1080" stroke="#00aaff" stroke-width="1"/>
    <line x1="1800" y1="0" x2="1800" y2="1080" stroke="#00aaff" stroke-width="1"/>
  </g>
  
  <!-- Connection nodes -->
  <g opacity="0.15">
    <circle cx="200" cy="100" r="5" fill="#00aaff"/>
    <circle cx="600" cy="100" r="5" fill="#00aaff"/>
    <circle cx="1000" cy="100" r="5" fill="#00aaff"/>
    <circle cx="1400" cy="100" r="5" fill="#00aaff"/>
    <circle cx="1800" cy="100" r="5" fill="#00aaff"/>
    
    <circle cx="200" cy="300" r="5" fill="#00aaff"/>
    <circle cx="600" cy="300" r="5" fill="#00aaff"/>
    <circle cx="1000" cy="300" r="5" fill="#00aaff"/>
    <circle cx="1400" cy="300" r="5" fill="#00aaff"/>
    <circle cx="1800" cy="300" r="5" fill="#00aaff"/>
    
    <circle cx="200" cy="500" r="5" fill="#00aaff"/>
    <circle cx="600" cy="500" r="5" fill="#00aaff"/>
    <circle cx="1000" cy="500" r="5" fill="#00aaff"/>
    <circle cx="1400" cy="500" r="5" fill="#00aaff"/>
    <circle cx="1800" cy="500" r="5" fill="#00aaff"/>
    
    <circle cx="200" cy="700" r="5" fill="#00aaff"/>
    <circle cx="600" cy="700" r="5" fill="#00aaff"/>
    <circle cx="1000" cy="700" r="5" fill="#00aaff"/>
    <circle cx="1400" cy="700" r="5" fill="#00aaff"/>
    <circle cx="1800" cy="700" r="5" fill="#00aaff"/>
    
    <circle cx="200" cy="900" r="5" fill="#00aaff"/>
    <circle cx="600" cy="900" r="5" fill="#00aaff"/>
    <circle cx="1000" cy="900" r="5" fill="#00aaff"/>
    <circle cx="1400" cy="900" r="5" fill="#00aaff"/>
    <circle cx="1800" cy="900" r="5" fill="#00aaff"/>
  </g>
  
  <!-- Some random connection lines -->
  <g opacity="0.07">
    <path d="M200,100 C400,200 600,150 1000,300" stroke="#0066cc" stroke-width="2" fill="none"/>
    <path d="M600,500 C800,700 1200,600 1400,300" stroke="#0066cc" stroke-width="2" fill="none"/>
    <path d="M200,900 C600,700 1000,800 1800,500" stroke="#0066cc" stroke-width="2" fill="none"/>
    <path d="M1000,100 C1200,300 1400,200 1800,300" stroke="#0066cc" stroke-width="2" fill="none"/>
  </g>
  
  <!-- Top left hex pattern group -->
  <g opacity="0.1" transform="translate(100, 100)">
    <polygon points="0,0 30,-52 90,-52 120,0 90,52 30,52" fill="none" stroke="#0066cc" stroke-width="1"/>
    <polygon points="120,0 150,-52 210,-52 240,0 210,52 150,52" fill="none" stroke="#0066cc" stroke-width="1"/>
    <polygon points="60,104 90,52 150,52 180,104 150,156 90,156" fill="none" stroke="#0066cc" stroke-width="1"/>
  </g>
  
  <!-- Bottom right hex pattern group -->
  <g opacity="0.1" transform="translate(1600, 800)">
    <polygon points="0,0 30,-52 90,-52 120,0 90,52 30,52" fill="none" stroke="#0066cc" stroke-width="1"/>
    <polygon points="120,0 150,-52 210,-52 240,0 210,52 150,52" fill="none" stroke="#0066cc" stroke-width="1"/>
    <polygon points="60,104 90,52 150,52 180,104 150,156 90,156" fill="none" stroke="#0066cc" stroke-width="1"/>
  </g>
</svg>