<?xml version="1.0" encoding="UTF-8" standalone="no"?>
<svg width="800" height="800" viewBox="0 0 800 800" version="1.1" xmlns="http://www.w3.org/2000/svg">
  <g transform="translate(400, 400)" fill="#0066cc" opacity="0.1">
    <!-- Stylized dragon head -->
    <path d="M0,-100 C-50,-120 -120,-130 -180,-80 C-240,-30 -270,50 -260,120 C-250,190 -200,240 -140,270 C-80,300 -20,290 30,270 C80,250 120,200 130,150 C140,100 120,50 80,20 C40,-10 0,-80 0,-100 Z" />
    
    <!-- Eye -->
    <circle cx="-130" cy="50" r="25" fill="#00aaff" />
    
    <!-- Teeth -->
    <path d="M-50,180 L-40,220 L-30,180 L-20,220 L-10,180 L0,220 L10,180 L20,220 L30,180" stroke="#00aaff" stroke-width="5" fill="none" />
    
    <!-- Horns -->
    <path d="M-170,-50 C-190,-90 -220,-100 -240,-110" stroke="#00aaff" stroke-width="8" fill="none" />
    <path d="M-150,-70 C-170,-100 -190,-120 -210,-130" stroke="#00aaff" stroke-width="6" fill="none" />
    
    <!-- Dragon breath -->
    <path d="M0,150 C50,170 100,180 150,190 C200,200 250,190 300,170" stroke="#00aaff" stroke-width="2" stroke-dasharray="5,3" fill="none" opacity="0.7" />
    <path d="M0,170 C40,190 90,210 140,220 C190,230 240,220 290,200" stroke="#00aaff" stroke-width="2" stroke-dasharray="5,3" fill="none" opacity="0.5" />
    <path d="M0,190 C30,210 70,230 120,240 C170,250 220,250 270,230" stroke="#00aaff" stroke-width="2" stroke-dasharray="5,3" fill="none" opacity="0.3" />
  </g>
</svg>